<?xml version="1.0" standalone="no"?>
<!DOCTYPE svg PUBLIC "-//W3C//DTD SVG 20010904//EN"
 "http://www.w3.org/TR/2001/REC-SVG-20010904/DTD/svg10.dtd">
<svg version="1.0" xmlns="http://www.w3.org/2000/svg"
 width="390.000000pt" height="397.000000pt" viewBox="0 0 390.000000 397.000000"
 preserveAspectRatio="xMidYMid meet">

<g transform="translate(0.000000,397.000000) scale(0.100000,-0.100000)"
fill="#000000" stroke="none">
<path d="M0 1985 l0 -1985 1950 0 1950 0 0 1985 0 1985 -1950 0 -1950 0 0
-1985z m3810 -5 l0 -1890 -1855 0 -1855 0 0 1890 0 1890 1855 0 1855 0 0
-1890z"/>
<path d="M190 1980 l0 -1800 1765 0 1765 0 0 1800 0 1800 -1765 0 -1765 0 0
-1800z m1430 815 c267 -56 487 -238 604 -499 102 -227 113 -466 32 -692 -29
-79 -77 -173 -113 -221 l-24 -31 139 -149 c89 -94 135 -151 128 -155 -6 -4
-106 -8 -222 -8 l-212 0 -40 40 c-22 22 -46 40 -53 40 -8 0 -45 -13 -84 -29
-123 -51 -150 -56 -320 -56 -150 0 -165 2 -239 28 -132 48 -224 106 -321 203
-174 175 -265 400 -265 654 0 226 61 398 208 583 181 229 505 350 782 292z
m1473 -958 c32 -15 76 -40 96 -56 39 -31 98 -108 89 -116 -3 -3 -64 -23 -137
-45 l-132 -39 -20 20 c-59 59 -157 41 -193 -36 -33 -69 -13 -185 38 -218 52
-34 113 -30 155 12 l20 20 132 -39 c73 -22 134 -42 137 -45 9 -8 -50 -85 -89
-116 -74 -58 -145 -83 -253 -87 -121 -5 -203 14 -285 69 -216 144 -219 488 -6
635 84 57 151 74 280 71 95 -2 118 -6 168 -30z"/>
<path d="M1385 2361 c-102 -27 -185 -118 -231 -251 -27 -79 -27 -311 0 -390
53 -157 180 -262 315 -259 85 1 84 4 -57 158 -73 79 -132 150 -132 157 0 11
40 14 217 14 l217 0 33 -32 32 -31 12 29 c17 41 17 257 0 319 -50 185 -153
283 -305 290 -39 3 -84 1 -101 -4z"/>
</g>
</svg>
