<?xml version="1.0" standalone="no"?>
<!DOCTYPE svg PUBLIC "-//W3C//DTD SVG 20010904//EN"
 "http://www.w3.org/TR/2001/REC-SVG-20010904/DTD/svg10.dtd">
<svg version="1.0" xmlns="http://www.w3.org/2000/svg"
 width="425.000000pt" height="422.000000pt" viewBox="0 0 425.000000 422.000000"
 preserveAspectRatio="xMidYMid meet">

<g transform="translate(0.000000,422.000000) scale(0.100000,-0.100000)"
fill="#000000" stroke="none">
<path d="M250 2050 l0 -1890 1853 2 1852 3 3 1888 2 1887 -1855 0 -1855 0 0
-1890z m3620 5 l0 -1805 -1770 0 -1770 0 0 1805 0 1805 1770 0 1770 0 0 -1805z"/>
<path d="M1484 2855 c-180 -32 -327 -115 -458 -257 -233 -250 -301 -619 -174
-943 51 -130 105 -212 208 -315 72 -72 114 -105 176 -137 141 -74 196 -87 374
-88 167 0 241 15 354 72 l49 25 46 -46 47 -46 215 2 214 3 -81 85 c-44 47
-106 113 -138 147 l-58 62 30 43 c73 107 122 232 147 373 20 118 19 179 -4
306 -35 195 -118 356 -252 490 -123 123 -260 195 -426 224 -102 18 -172 18
-269 0z m236 -420 c141 -50 235 -204 247 -408 6 -86 -8 -206 -27 -236 -6 -11
-15 -6 -40 23 l-32 36 -208 0 c-115 0 -211 -3 -213 -7 -3 -5 53 -71 124 -148
71 -77 129 -145 129 -152 0 -16 -80 -27 -127 -18 -194 35 -303 203 -303 466 0
149 33 255 106 346 37 45 85 79 143 99 49 18 149 17 201 -1z"/>
<path d="M2950 1927 c-164 -38 -272 -151 -301 -315 -21 -117 23 -256 106 -337
144 -139 414 -151 574 -25 43 34 99 106 90 114 -2 2 -59 20 -126 40 l-122 36
-37 -25 c-69 -47 -163 -23 -198 49 -21 44 -21 128 0 172 20 43 70 74 118 74
40 0 92 -22 98 -42 3 -9 40 -1 134 26 71 21 131 40 133 42 2 2 -7 19 -19 39
-31 50 -109 109 -177 135 -71 26 -198 34 -273 17z"/>
</g>
</svg>
